<svg width="1152" height="288" xmlns="http://www.w3.org/2000/svg" xmlns:xlink="http://www.w3.org/1999/xlink" overflow="hidden"><defs><clipPath id="clip0"><rect x="0" y="0" width="1152" height="288"/></clipPath></defs><g clip-path="url(#clip0)"><rect x="0" y="0" width="1152" height="288" fill="#FFFFFF"/><path d="M17 89 950.57 89.0001 950.57 91.0001 17 91ZM949.236 86.0001 957.236 90.0001 949.236 94.0001Z"/><path d="M482.5 90.5001C482.5 85.5295 486.753 81.5001 492 81.5001 497.247 81.5001 501.5 85.5295 501.5 90.5001 501.5 95.4706 497.247 99.5001 492 99.5001 486.753 99.5001 482.5 95.4706 482.5 90.5001Z" stroke="#000000" stroke-width="1.33333" stroke-miterlimit="8" fill-rule="evenodd"/><path d="M538.5 90.5001C538.5 85.5295 542.753 81.5001 548 81.5001 553.247 81.5001 557.5 85.5295 557.5 90.5001 557.5 95.4706 553.247 99.5001 548 99.5001 542.753 99.5001 538.5 95.4706 538.5 90.5001Z" stroke="#000000" stroke-width="1.33333" stroke-miterlimit="8" fill-rule="evenodd"/><path d="M594.5 90.5001C594.5 85.5295 598.529 81.5001 603.5 81.5001 608.471 81.5001 612.5 85.5295 612.5 90.5001 612.5 95.4706 608.471 99.5001 603.5 99.5001 598.529 99.5001 594.5 95.4706 594.5 90.5001Z" stroke="#000000" stroke-width="1.33333" stroke-miterlimit="8" fill-rule="evenodd"/><path d="M908.5 90.5001C908.5 85.5295 912.753 81.5001 918 81.5001 923.247 81.5001 927.5 85.5295 927.5 90.5001 927.5 95.4706 923.247 99.5001 918 99.5001 912.753 99.5001 908.5 95.4706 908.5 90.5001Z" stroke="#000000" stroke-width="1.33333" stroke-miterlimit="8" fill-rule="evenodd"/><path d="M426.5 90.5001C426.5 85.5295 430.753 81.5001 436 81.5001 441.247 81.5001 445.5 85.5295 445.5 90.5001 445.5 95.4706 441.247 99.5001 436 99.5001 430.753 99.5001 426.5 95.4706 426.5 90.5001Z" stroke="#000000" stroke-width="1.33333" stroke-miterlimit="8" fill="#FF0000" fill-rule="evenodd"/><path d="M370.5 90.5001C370.5 85.5295 374.753 81.5001 380 81.5001 385.247 81.5001 389.5 85.5295 389.5 90.5001 389.5 95.4706 385.247 99.5001 380 99.5001 374.753 99.5001 370.5 95.4706 370.5 90.5001Z" stroke="#000000" stroke-width="1.33333" stroke-miterlimit="8" fill="#FF0000" fill-rule="evenodd"/><path d="M314.5 90.5001C314.5 85.5295 318.753 81.5001 324 81.5001 329.247 81.5001 333.5 85.5295 333.5 90.5001 333.5 95.4706 329.247 99.5001 324 99.5001 318.753 99.5001 314.5 95.4706 314.5 90.5001Z" stroke="#000000" stroke-width="1.33333" stroke-miterlimit="8" fill-rule="evenodd"/><path d="M258.5 90.5001C258.5 85.5295 262.753 81.5001 268 81.5001 273.247 81.5001 277.5 85.5295 277.5 90.5001 277.5 95.4706 273.247 99.5001 268 99.5001 262.753 99.5001 258.5 95.4706 258.5 90.5001Z" stroke="#000000" stroke-width="1.33333" stroke-miterlimit="8" fill-rule="evenodd"/><path d="M74.5001 90.5001C74.5001 85.5295 78.5295 81.5001 83.5001 81.5001 88.4706 81.5001 92.5001 85.5295 92.5001 90.5001 92.5001 95.4706 88.4706 99.5001 83.5001 99.5001 78.5295 99.5001 74.5001 95.4706 74.5001 90.5001Z" stroke="#000000" stroke-width="1.33333" stroke-miterlimit="8" fill-rule="evenodd"/><text font-family="Calibri,Calibri_MSFontService,sans-serif" font-style="italic" font-weight="400" font-size="21" transform="translate(978.509 94)">num_local_experts</text><path d="M928 157C928 165.282 918.963 171.995 907.815 171.995L725.185 171.995C714.037 171.995 705 178.709 705 186.99 705 178.709 695.963 171.995 684.815 171.995L502.185 171.995C491.037 171.995 482 165.282 482 157" stroke="#000000" stroke-width="2" stroke-miterlimit="8" fill="none" fill-rule="evenodd"/><text font-family="Calibri,Calibri_MSFontService,sans-serif" font-style="italic" font-weight="400" font-size="19" transform="translate(613.444 209)">helloworld<tspan font-size="19" x="83.9067" y="0">/ </tspan><tspan font-size="19" x="95.24" y="0">helloworld_ddp</tspan></text><path d="M336 157C336 165.284 326.96 172 315.808 172L266.147 172C254.995 172 245.955 178.716 245.955 187 245.955 178.716 236.914 172 225.763 172L173.192 172C162.04 172 153 165.284 153 157" stroke="#000000" stroke-width="2" stroke-miterlimit="8" fill="none" fill-rule="evenodd"/><text font-family="Calibri,Calibri_MSFontService,sans-serif" font-style="italic" font-weight="400" font-size="19" transform="translate(161.612 203)">helloworld_sharded_experts</text><path d="M117 173C117 181.56 109.4 188.5 100.024 188.5L100.024 188.5C90.6489 188.5 83.0486 195.44 83.0486 204 83.0486 195.44 75.4483 188.5 66.0729 188.5L64.9757 188.5C55.6003 188.5 48 181.56 48 173" stroke="#000000" stroke-width="2" stroke-miterlimit="8" fill="none" fill-rule="evenodd"/><text font-family="Calibri,Calibri_MSFontService,sans-serif" font-style="italic" font-weight="400" font-size="19" transform="translate(6.51213 231)">helloworld_megatron<tspan font-style="normal" font-size="19" x="44.3724" y="-104">-</tspan><tspan font-style="normal" font-size="19" x="50.0391" y="-104">|GPUs| </tspan><tspan font-style="normal" font-size="19" x="253.56" y="-104">-</tspan><tspan font-style="normal" font-size="19" x="259.226" y="-104">3</tspan><tspan font-style="normal" font-size="19" x="309.559" y="-105">-</tspan><tspan font-style="normal" font-size="19" x="315.226" y="-105">2</tspan><tspan font-style="normal" font-size="19" x="480.392" y="-104">1</tspan><tspan font-style="normal" font-size="19" x="536.32" y="-104">2</tspan><tspan font-style="normal" font-size="19" x="591.586" y="-104">3</tspan><tspan font-style="normal" font-size="19" x="901.884" y="-106">+∞</tspan><tspan font-style="normal" font-size="19" x="734.324" y="-103">...</tspan><tspan font-style="normal" font-size="19" x="164.049" y="-104">...</tspan></text></g></svg>
