<svg width="1200" height="240" xmlns="http://www.w3.org/2000/svg" xmlns:xlink="http://www.w3.org/1999/xlink" overflow="hidden"><defs><clipPath id="clip0"><rect x="0" y="0" width="1200" height="240"/></clipPath></defs><g clip-path="url(#clip0)"><rect x="0" y="0" width="1200" height="240" fill="#FFFFFF"/><path d="M38 52 971.57 52.0001 971.57 54.0001 38 54ZM970.236 49.0001 978.236 53.0001 970.236 57.0001Z"/><path d="M503.5 53.5001C503.5 48.5295 507.753 44.5001 513 44.5001 518.247 44.5001 522.5 48.5295 522.5 53.5001 522.5 58.4706 518.247 62.5001 513 62.5001 507.753 62.5001 503.5 58.4706 503.5 53.5001Z" stroke="#000000" stroke-width="1.33333" stroke-miterlimit="8" fill-rule="evenodd"/><path d="M559.5 53.5001C559.5 48.5295 563.753 44.5001 569 44.5001 574.247 44.5001 578.5 48.5295 578.5 53.5001 578.5 58.4706 574.247 62.5001 569 62.5001 563.753 62.5001 559.5 58.4706 559.5 53.5001Z" stroke="#000000" stroke-width="1.33333" stroke-miterlimit="8" fill-rule="evenodd"/><path d="M615.5 53.5001C615.5 48.5295 619.753 44.5001 625 44.5001 630.247 44.5001 634.5 48.5295 634.5 53.5001 634.5 58.4706 630.247 62.5001 625 62.5001 619.753 62.5001 615.5 58.4706 615.5 53.5001Z" stroke="#000000" stroke-width="1.33333" stroke-miterlimit="8" fill-rule="evenodd"/><path d="M930.5 53.5001C930.5 48.5295 934.529 44.5001 939.5 44.5001 944.471 44.5001 948.5 48.5295 948.5 53.5001 948.5 58.4706 944.471 62.5001 939.5 62.5001 934.529 62.5001 930.5 58.4706 930.5 53.5001Z" stroke="#000000" stroke-width="1.33333" stroke-miterlimit="8" fill-rule="evenodd"/><path d="M447.5 53.5001C447.5 48.5295 451.753 44.5001 457 44.5001 462.247 44.5001 466.5 48.5295 466.5 53.5001 466.5 58.4706 462.247 62.5001 457 62.5001 451.753 62.5001 447.5 58.4706 447.5 53.5001Z" stroke="#000000" stroke-width="1.33333" stroke-miterlimit="8" fill="#FF0000" fill-rule="evenodd"/><path d="M391.5 53.5001C391.5 48.5295 395.753 44.5001 401 44.5001 406.247 44.5001 410.5 48.5295 410.5 53.5001 410.5 58.4706 406.247 62.5001 401 62.5001 395.753 62.5001 391.5 58.4706 391.5 53.5001Z" stroke="#000000" stroke-width="1.33333" stroke-miterlimit="8" fill="#FF0000" fill-rule="evenodd"/><path d="M335.5 53.5001C335.5 48.5295 339.753 44.5001 345 44.5001 350.247 44.5001 354.5 48.5295 354.5 53.5001 354.5 58.4706 350.247 62.5001 345 62.5001 339.753 62.5001 335.5 58.4706 335.5 53.5001Z" stroke="#000000" stroke-width="1.33333" stroke-miterlimit="8" fill-rule="evenodd"/><text font-family="Consolas,Consolas_MSFontService,sans-serif" font-weight="400" font-size="24" transform="translate(47.7394 109)">-|GPUs|    …     <tspan font-size="24" x="223.833" y="0">-</tspan><tspan font-size="24" x="237" y="0">3  </tspan><tspan font-size="24" x="276.5" y="0">-</tspan>2            1   2   3          …            +∞</text><path d="M279.5 53.5001C279.5 48.5295 283.753 44.5001 289 44.5001 294.247 44.5001 298.5 48.5295 298.5 53.5001 298.5 58.4706 294.247 62.5001 289 62.5001 283.753 62.5001 279.5 58.4706 279.5 53.5001Z" stroke="#000000" stroke-width="1.33333" stroke-miterlimit="8" fill-rule="evenodd"/><path d="M95.5001 53.5001C95.5001 48.5295 99.5295 44.5001 104.5 44.5001 109.471 44.5001 113.5 48.5295 113.5 53.5001 113.5 58.4706 109.471 62.5001 104.5 62.5001 99.5295 62.5001 95.5001 58.4706 95.5001 53.5001Z" stroke="#000000" stroke-width="1.33333" stroke-miterlimit="8" fill-rule="evenodd"/><text font-family="Calibri,Calibri_MSFontService,sans-serif" font-style="italic" font-weight="400" font-size="21" transform="translate(1016.61 57)">num_local_experts</text><path d="M949 120C949 128.284 939.96 135 928.808 135L746.192 135C735.04 135 726 141.716 726 150 726 141.716 716.96 135 705.808 135L523.192 135C512.04 135 503 128.284 503 120" stroke="#000000" stroke-width="2" stroke-miterlimit="8" fill="none" fill-rule="evenodd"/><text font-family="Calibri,Calibri_MSFontService,sans-serif" font-style="italic" font-weight="400" font-size="19" transform="translate(634.524 172)">helloworld<tspan font-size="19" x="83.9067" y="0">/ </tspan><tspan font-size="19" x="95.24" y="0">helloworld_ddp</tspan></text><path d="M357 120C357 128.284 347.96 135 336.808 135L287.147 135C275.995 135 266.955 141.716 266.955 150 266.955 141.716 257.914 135 246.763 135L194.192 135C183.04 135 174 128.284 174 120" stroke="#000000" stroke-width="2" stroke-miterlimit="8" fill="none" fill-rule="evenodd"/><text font-family="Calibri,Calibri_MSFontService,sans-serif" font-style="italic" font-weight="400" font-size="19" transform="translate(182.693 165)">helloworld_sharded_experts</text><path d="M139 136C139 144.56 131.29 151.5 121.778 151.5L121.778 151.5C112.267 151.5 104.556 158.44 104.556 167 104.556 158.44 96.8461 151.5 87.3348 151.5L86.2217 151.5C76.7104 151.5 69 144.56 69 136" stroke="#000000" stroke-width="2" stroke-miterlimit="8" fill="none" fill-rule="evenodd"/><text font-family="Calibri,Calibri_MSFontService,sans-serif" font-style="italic" font-weight="400" font-size="19" transform="translate(27.5921 194)">helloworld_megatron</text></g></svg>
